<?xml version="1.0" encoding="utf-8"?>
<!-- Generator: Adobe Illustrator 23.0.0, SVG Export Plug-In . SVG Version: 6.00 Build 0)  -->
<svg version="1.1" id="Capa_1" xmlns="http://www.w3.org/2000/svg" xmlns:xlink="http://www.w3.org/1999/xlink" x="0px" y="0px"
	 viewBox="0 0 104.4 86" style="enable-background:new 0 0 104.4 86;" xml:space="preserve">
<style type="text/css">
	.st0{fill:#FFFFFF;}
</style>
<path class="st0" d="M91.7,38.5h-4.8c0-15.6-12.4-28.7-28.3-29V4.8C77.1,5.1,91.7,20.1,91.7,38.5z M58.3,13.1v4.8
	c11.1,0,20.1,9.2,20.1,20.4h4.8C83.4,24.5,72.3,13.4,58.3,13.1z M58.3,22v4.8c6.4,0,11.5,5.4,11.5,11.8h4.8
	C74.8,29.3,67.5,22,58.3,22z M24.2,46.5c4.1,4.8,8.3,9.6,12.7,14.3l0,0l0.3,0.3l0.3,0.3l0,0c4.5,4.5,9.2,8.6,14,12.7
	C64,85,81.2,83.7,88.2,72.9c0.3-0.3,0.6-1,1-1.3c1.3-3.2,1.6-6.7,2.2-9.9c1-4.1-18.1-12.4-20.1-7.3c-0.6,1.9-1.6,8-2.9,9.6
	c-1,1.3-3.8,0.6-5.4-0.6c-4.5-3.8-9.2-9.2-13.4-13.7l0,0l-0.3-0.3L49,49l0,0c-4.5-4.5-9.9-9.2-13.4-13.7c-1.3-1.6-1.9-4.5-0.6-5.4
	c1.6-1.3,7.6-1.9,9.6-2.5c5.1-1.6-2.9-21-7-20.1c-3.2,0.6-6.7,1-9.9,2.2c-0.6-0.3-1.3,0-1.6,0.3C15,16.9,13.4,33.8,24.2,46.5z"/>
</svg>
