<?xml version="1.0" encoding="utf-8"?>
<!-- Generator: Adobe Illustrator 23.0.0, SVG Export Plug-In . SVG Version: 6.00 Build 0)  -->
<svg version="1.1" id="Capa_1" xmlns="http://www.w3.org/2000/svg" xmlns:xlink="http://www.w3.org/1999/xlink" x="0px" y="0px"
	 viewBox="0 0 30 30" style="enable-background:new 0 0 30 30;" xml:space="preserve">
<style type="text/css">
	.st0{fill:#0063BC;}
</style>
<path class="st0" d="M27,15.1l-1.5,0c0-4.9-3.9-9-8.9-9.1l0-1.5C22.4,4.6,27,9.3,27,15.1z M16.5,7.1l0,1.5c3.5,0,6.3,2.9,6.3,6.4
	l1.5,0C24.4,10.7,20.9,7.2,16.5,7.1z M16.5,9.9l0,1.5c2,0,3.6,1.7,3.6,3.7l1.5,0C21.7,12.2,19.4,9.9,16.5,9.9z M5.8,17.6
	c1.3,1.5,2.6,3,4,4.5l0,0c0,0,0.1,0.1,0.1,0.1c0,0,0.1,0.1,0.1,0.1l0,0c1.4,1.4,2.9,2.7,4.4,4c3.9,3.4,9.3,3,11.5-0.4
	c0.1-0.1,0.2-0.3,0.3-0.4c0.4-1,0.5-2.1,0.7-3.1c0.3-1.3-5.7-3.9-6.3-2.3c-0.2,0.6-0.5,2.5-0.9,3c-0.3,0.4-1.2,0.2-1.7-0.2
	c-1.4-1.2-2.9-2.9-4.2-4.3l0,0c0,0-0.1-0.1-0.1-0.1c0,0-0.1-0.1-0.1-0.1l0,0c-1.4-1.4-3.1-2.9-4.2-4.3c-0.4-0.5-0.6-1.4-0.2-1.7
	c0.5-0.4,2.4-0.6,3-0.8c1.6-0.5-0.9-6.6-2.2-6.3c-1,0.2-2.1,0.3-3.1,0.7C6.7,5.9,6.5,6,6.4,6.1C2.9,8.3,2.4,13.6,5.8,17.6z"/>
</svg>
